<?xml version="1.0" encoding="utf-8"?>
<svg width="183px" height="183px" viewBox="0 0 183 183" version="1.1" xmlns:xlink="http://www.w3.org/1999/xlink" xmlns="http://www.w3.org/2000/svg">
  <defs>
    <filter id="filter_1">
      <feColorMatrix in="SourceGraphic" type="matrix" values="0 0 0 0 0.6901961 0 0 0 0 0.6901961 0 0 0 0 0.6901961 0 0 0 1 0" />
    </filter>
    <path d="M0 0L182.398 0L182.398 182.398L0 182.398L0 0Z" id="path_1" />
    <clipPath id="mask_1">
      <use xlink:href="#path_1" />
    </clipPath>
  </defs>
  <g id="54565" filter="url(#filter_1)">
    <path d="M0 0L182.398 0L182.398 182.398L0 182.398L0 0Z" id="Background" fill="none" stroke="none" />
    <g clip-path="url(#mask_1)">
      <g id="Group" transform="translate(0 12.149536)">
        <g id="_x31_0_28_">
          <g id="Group">
            <path d="M85.1191 22.7596L65.2559 46.8364C62.8728 49.2317 59.0058 49.2317 56.6224 46.8361C54.239 44.4408 54.239 40.5619 56.6224 38.1663L86.6817 1.74145C87.9526 0.46466 89.6368 -0.0762758 91.3025 0.00866445C92.9622 -0.0765737 94.6524 0.46466 95.9232 1.74145L125.97 38.1663C128.353 40.5616 128.353 44.4405 125.97 46.8361C123.587 49.2317 119.72 49.2317 117.337 46.8361L97.279 22.5286L97.279 109.448C97.279 112.816 94.5552 115.539 91.1991 115.539C87.8429 115.539 85.1191 112.81 85.1191 109.448L85.1191 22.7596ZM170.239 103.38C170.239 100.024 172.962 97.2999 176.318 97.2999C179.674 97.2999 182.398 100.018 182.398 103.38L182.398 152.019C182.398 155.375 179.674 158.099 176.318 158.099L6.07994 158.099C2.72375 158.099 0 155.376 0 152.019L0 103.38C0 100.024 2.72375 97.2999 6.07994 97.2999C9.43613 97.2999 12.1599 100.023 12.1599 103.38L12.1599 145.939L170.239 145.939L170.239 103.38Z" id="Shape" fill="#000000" fill-rule="evenodd" stroke="none" />
          </g>
        </g>
      </g>
    </g>
  </g>
</svg>